<?xml version="1.0" encoding="UTF-8" standalone="no"?>
<svg width="43px" height="45px" viewBox="0 0 43 45" version="1.1" xmlns="http://www.w3.org/2000/svg" xmlns:xlink="http://www.w3.org/1999/xlink" xmlns:sketch="http://www.bohemiancoding.com/sketch/ns">
    <!-- Generator: Sketch 3.1.1 (8761) - http://www.bohemiancoding.com/sketch -->
    <title>adv_insurance 2</title>
    <desc>Created with Sketch.</desc>
    <defs></defs>
    <g id="Page-1" stroke="none" stroke-width="1" fill="none" fill-rule="evenodd" sketch:type="MSPage">
        <g id="Map2-2" sketch:type="MSArtboardGroup" transform="translate(-425.000000, -248.000000)" fill="#000000">
            <path d="M449.725651,251.936713 L449.841296,251.743368 C449.841296,249.682425 448.13935,248 446.049418,248 C443.950793,248 442.258823,249.67956 442.258823,251.743368 C442.258823,251.743368 442.470849,251.888857 442.374865,251.93699 C442.079592,252.085062 441.614376,252.241487 441.075459,252.368229 C433.74298,254.092475 427.845921,259.550343 425.599221,266.654352 C425.245496,267.785774 425.057049,268.561334 425.011407,269.163075 C424.977021,269.616426 425.016528,270.012805 425.182771,270.3904 C425.43653,270.966771 425.949981,271.360655 426.582529,271.455088 C427.3034,271.617965 428.018105,271.334971 429.200134,270.629996 C430.150679,270.060389 431.392242,269.738603 432.751167,269.738603 C434.095682,269.738603 435.337805,270.061319 436.28418,270.628432 C438.893944,272.163117 439.910691,272.163117 442.497758,270.632656 C442.957281,270.359216 443.487649,270.14121 444.099554,269.975037 C444.700311,269.821246 445.374998,269.736066 446.050702,269.736066 C446.725661,269.736066 447.397909,269.821043 448.021541,269.980567 C448.622834,270.142936 449.154613,270.360774 449.584803,270.622884 C452.188695,272.163442 453.219945,272.163442 455.807562,270.632656 C456.761025,270.060694 458.003491,269.738603 459.360505,269.738603 C460.694389,269.738603 461.939582,270.060029 462.8928,270.621422 C464.051807,271.302957 464.750987,271.580453 465.551223,271.434705 C466.137753,271.346863 466.649389,270.954491 466.904978,270.381479 C467.073713,270.003188 467.115773,269.603727 467.083026,269.14818 C467.038866,268.533856 466.845401,267.739908 466.487233,266.614955 C464.243364,259.53846 458.346553,254.091211 451.024851,252.368274 C450.486509,252.241667 449.725651,251.936713 449.725651,251.936713 Z M444.965563,284.671342 C444.965563,286.856077 443.131529,288.63398 440.877819,288.63398 C439.576554,288.63398 438.415635,288.043547 437.667578,287.120253 C436.735572,285.97505 435.877146,284.671342 434.746204,284.671342 C433.615261,284.671342 432.657367,285.88523 433.150621,287.264228 C434.257037,290.369616 437.299681,292.596619 440.877819,292.596619 C445.392051,292.596619 449.053307,289.047416 449.053307,284.671342 L449.053307,274.104306 C449.053307,272.646055 448.139015,272.783427 447.009435,272.783427 C445.879855,272.783427 444.965563,272.646055 444.965563,274.104306 L444.965563,284.671342 Z" id="adv_insurance-2" sketch:type="MSShapeGroup"></path>
        </g>
    </g>
</svg>